<?xml version="1.0" encoding="UTF-8" standalone="no"?>
<svg
   xmlns:dc="http://purl.org/dc/elements/1.1/"
   xmlns:cc="http://creativecommons.org/ns#"
   xmlns:rdf="http://www.w3.org/1999/02/22-rdf-syntax-ns#"
   xmlns:svg="http://www.w3.org/2000/svg"
   xmlns="http://www.w3.org/2000/svg"
   xmlns:sodipodi="http://sodipodi.sourceforge.net/DTD/sodipodi-0.dtd"
   xmlns:inkscape="http://www.inkscape.org/namespaces/inkscape"
   height="20px"
   version="1.1"
   viewBox="0 0 20 20"
   width="20px"
   id="svg1599"
   sodipodi:docname="off.svg"
   inkscape:version="1.0.2 (e86c870879, 2021-01-15)">
  <metadata
     id="metadata1603">
    <rdf:RDF>
      <cc:Work
         rdf:about="">
        <dc:format>image/svg+xml</dc:format>
        <dc:type
           rdf:resource="http://purl.org/dc/dcmitype/StillImage" />
      </cc:Work>
    </rdf:RDF>
  </metadata>
  <sodipodi:namedview
     pagecolor="#ffffff"
     bordercolor="#666666"
     borderopacity="1"
     objecttolerance="10"
     gridtolerance="10"
     guidetolerance="10"
     inkscape:pageopacity="0"
     inkscape:pageshadow="2"
     inkscape:window-width="1920"
     inkscape:window-height="1097"
     id="namedview1601"
     showgrid="false"
     inkscape:zoom="42.737086"
     inkscape:cx="10"
     inkscape:cy="10"
     inkscape:window-x="0"
     inkscape:window-y="28"
     inkscape:window-maximized="1"
     inkscape:current-layer="svg1599" />
  <title
     id="title1589" />
  <desc
     id="desc1591" />
  <defs
     id="defs1593" />
  <path
     d="m 4.7093296,4.8990152 c 1.3843632,-1.0781158 3.1593481,-1.8990463 5.29058,-1.8990463 2.5249784,0 4.5468354,1.1512402 6.0186984,2.5187286 1.462487,1.3562384 2.440604,2.9530999 2.9031,4.0968401 0.103124,0.2468729 0.103124,0.5218704 0,0.7687434 -0.418746,1.009367 -1.259364,2.431229 -2.496854,3.699968 l 3.287472,2.574978 c 0.324998,0.256248 0.384372,0.728119 0.128124,1.053116 -0.256248,0.324998 -0.728119,0.384372 -1.053116,0.128124 L 0.28736716,3.3402785 C -0.03863007,3.0846557 -0.09578583,2.6134097 0.15974325,2.28735 0.41530357,1.9613527 0.88654957,1.904197 1.2127968,2.159726 Z M 5.9311942,5.8593196 7.3686819,6.98431 C 8.071801,6.3718152 8.9936681,5.9999434 9.9999096,5.9999434 c 2.2093554,0 3.9999654,1.7906098 3.9999654,3.999966 0,0.6624946 -0.159374,1.2843646 -0.443746,1.8343596 l 1.681235,1.318738 c 1.046867,-1.065616 1.82186,-2.30623 2.218732,-3.1530976 C 17.002974,9.0342926 16.199856,7.7343036 14.996741,6.6155632 13.712377,5.4249483 12.037392,4.4718314 9.9999096,4.4718314 c -1.5781116,0 -2.9655998,0.5821825 -4.0687154,1.3874882 z m 6.4093198,5.0218324 c 0.103124,-0.274998 0.159374,-0.57187 0.159374,-0.9093674 0,-1.3531135 -1.118741,-2.4999787 -2.4999784,-2.4999787 -0.021875,0 -0.040625,0.028125 -0.090624,0.028125 0.06875,0.1593737 0.090624,0.3281222 0.090624,0.471871 0,0.3468721 -0.074999,0.6468695 -0.2062483,0.9124923 z m 0.293748,4.07184 1.309363,1.031241 c -1.134365,0.612495 -2.449979,1.015616 -3.9437154,1.015616 -2.5249786,0 -4.5468364,-1.14999 -6.0186989,-2.518728 -1.4618625,-1.384363 -2.4393542,-2.981224 -2.9043503,-4.09684 -0.10249908,-0.246873 -0.10249908,-0.5218705 0,-0.7687434 C 1.3749829,8.8999187 1.8840411,7.9749266 2.596535,7.0468095 l 1.1784275,0.9281171 c -0.58437,0.7281188 -0.9699918,1.4499877 -1.229677,1.996858 0.4240588,0.9656164 1.2546768,2.2937304 2.4577916,3.4124704 1.284364,1.190615 2.9593498,2.115607 4.9968325,2.115607 0.9593664,0 1.8374834,-0.206248 2.6343524,-0.54687 z M 5.9999436,9.9717846 c 0,-0.0625 0.00312,-0.1499987 0.00937,-0.237498 l 1.753115,1.3812384 c 0.3281222,0.659369 0.940617,1.153115 1.6749858,1.293738 l 1.7562346,1.409364 c -0.378122,0.09062 -0.778119,0.181248 -1.2218642,0.181248 -2.1812314,0 -3.999966,-1.79061 -3.999966,-4.0280904 z"
     id="path835"
     style="display:inline;fill:#b3b3b3;fill-opacity:1;stroke-width:0.0312497" />
</svg>
