<?xml version="1.0" encoding="UTF-8" standalone="no"?>
<svg
   xmlns:dc="http://purl.org/dc/elements/1.1/"
   xmlns:cc="http://creativecommons.org/ns#"
   xmlns:rdf="http://www.w3.org/1999/02/22-rdf-syntax-ns#"
   xmlns:svg="http://www.w3.org/2000/svg"
   xmlns="http://www.w3.org/2000/svg"
   xmlns:sodipodi="http://sodipodi.sourceforge.net/DTD/sodipodi-0.dtd"
   xmlns:inkscape="http://www.inkscape.org/namespaces/inkscape"
   height="20px"
   version="1.1"
   viewBox="0 0 20 20"
   width="20px"
   id="svg959"
   sodipodi:docname="on.svg"
   inkscape:version="1.0.2 (e86c870879, 2021-01-15)">
  <metadata
     id="metadata963">
    <rdf:RDF>
      <cc:Work
         rdf:about="">
        <dc:format>image/svg+xml</dc:format>
        <dc:type
           rdf:resource="http://purl.org/dc/dcmitype/StillImage" />
      </cc:Work>
    </rdf:RDF>
  </metadata>
  <sodipodi:namedview
     pagecolor="#ffffff"
     bordercolor="#666666"
     borderopacity="1"
     objecttolerance="10"
     gridtolerance="10"
     guidetolerance="10"
     inkscape:pageopacity="0"
     inkscape:pageshadow="2"
     inkscape:window-width="1377"
     inkscape:window-height="1014"
     id="namedview961"
     showgrid="false"
     inkscape:zoom="25.917337"
     inkscape:cx="10"
     inkscape:cy="10"
     inkscape:window-x="543"
     inkscape:window-y="100"
     inkscape:window-maximized="0"
     inkscape:current-layer="svg959" />
  <title
     id="title949" />
  <desc
     id="desc951" />
  <defs
     id="defs953" />
  <path
     d="M 4.7093293,4.8990153 C 6.0936925,3.8208994 7.8686775,2.999969 9.9999093,2.999969 c 2.5249787,0 4.5468347,1.1512403 6.0186987,2.5187288 1.462488,1.3562381 2.440603,2.9530997 2.903101,4.0968401 0.103129,0.2468729 0.103129,0.5218701 0,0.7687431 -0.418747,1.009366 -1.259365,2.431229 -2.496855,3.699968 l 3.287473,2.574979 c 0.324997,0.256248 0.384371,0.728119 0.128124,1.053116 -0.256248,0.324996 -0.72812,0.384371 -1.053116,0.128124 L 0.287367,3.3402784 C -0.03863025,3.0846558 -0.09578599,2.6134097 0.15974314,2.2873501 0.41530344,1.9613527 0.8865494,1.904197 1.2127966,2.159726 Z m 1.2218646,0.9603043 1.4374877,1.1249906 c 0.7031189,-0.612495 1.6249861,-0.9843669 2.6312277,-0.9843669 2.2093567,0 3.9999647,1.7906101 3.9999647,3.9999661 0,0.6624946 -0.159373,1.2843646 -0.443746,1.8343596 l 1.681237,1.318739 C 16.28423,12.08739 17.059224,10.846777 17.456096,9.9999094 17.002975,9.0342929 16.199858,7.7343038 14.99674,6.6155634 13.712377,5.4249483 12.03739,4.4718315 9.9999093,4.4718315 c -1.5781118,0 -2.9655998,0.5821826 -4.0687154,1.3874881 z m 6.7030681,9.0936734 1.309363,1.031242 c -1.134366,0.612493 -2.449979,1.015615 -3.9437157,1.015615 -2.5249787,0 -4.5468362,-1.149991 -6.0186989,-2.518729 -1.4618624,-1.384362 -2.4393542,-2.981225 -2.9043502,-4.09684 -0.1024996,-0.246873 -0.1024996,-0.5218702 0,-0.7687431 C 1.3749828,8.899919 1.884041,7.9749269 2.5965349,7.0468095 l 1.1784274,0.9281174 c -0.58437,0.7281188 -0.9699917,1.4499877 -1.229677,1.9968575 0.4240589,0.9656166 1.2546767,2.2937316 2.4577914,3.4124706 1.2843642,1.190615 2.9593499,2.115608 4.9968326,2.115608 0.9593657,0 1.8374847,-0.206249 2.6343527,-0.54687 z M 5.9999432,9.9717844 c 0,-0.0625 0.00313,-0.1499983 0.00938,-0.2374975 l 1.75311,1.3812361 1.6749858,1.293742 1.756235,1.409361 c -0.378123,0.09063 -0.778119,0.18125 -1.2218647,0.18125 -2.1812312,0 -3.9999657,-1.790611 -3.9999657,-4.0280916 z"
     id="path2"
     style="display:inline;fill:#e50f0f;fill-opacity:1;stroke-width:0.0312497"
     sodipodi:nodetypes="cscccccscccccccssccccscccscccccccsccccccscc" />
</svg>
